<svg width="76" height="76" viewBox="0 0 76 76" fill="none" xmlns="http://www.w3.org/2000/svg">
<path fill-rule="evenodd" clip-rule="evenodd" d="M7.30754 0.382992L7.31525 0.38298H52.4778L52.4855 0.382992C54.2433 0.388121 55.9277 1.09213 57.1707 2.34123C58.4137 3.59033 59.1142 5.28301 59.1193 7.04949L59.1193 7.05725V64.4326H53.8061V7.06237C53.8044 6.70755 53.6634 6.36771 53.4137 6.11677C53.164 5.86587 52.8259 5.72417 52.4729 5.72239H7.32013C6.96713 5.72417 6.62905 5.86587 6.37938 6.11677C6.12972 6.36766 5.98872 6.70741 5.98694 7.06215V65.7863C5.99102 66.8482 6.4126 67.8656 7.15991 68.6166C7.90732 69.3677 8.91988 69.7914 9.97679 69.7953H64.4326V75.1348H9.97187L9.96394 75.1347C7.50228 75.1273 5.14355 74.1414 3.40288 72.3921C1.66222 70.6429 0.68107 68.2725 0.673718 65.7988L0.673706 65.7908V7.05725L0.673717 7.04949C0.678822 5.283 1.37938 3.59033 2.62236 2.34123C3.86534 1.09213 5.54971 0.388121 7.30754 0.382992Z" fill="white"/>
<path fill-rule="evenodd" clip-rule="evenodd" d="M54.5391 16.251C54.5391 14.7728 55.708 13.5745 57.1499 13.5745H68.8985C70.6296 13.5745 72.2898 14.2794 73.5139 15.5343C74.7379 16.7892 75.4256 18.4911 75.4256 20.2658V64.4286C75.4256 67.2681 74.3253 69.9912 72.3668 71.999C70.4083 74.0068 67.752 75.1348 64.9823 75.1348C62.2126 75.1348 59.5563 74.0068 57.5978 71.999C55.6393 69.9912 54.5391 67.2681 54.5391 64.4286V16.251ZM59.7607 18.9275V64.4286C59.7607 65.8483 60.3108 67.2099 61.2901 68.2138C62.2693 69.2177 63.5975 69.7817 64.9823 69.7817C66.3672 69.7817 67.6953 69.2177 68.6746 68.2138C69.6538 67.2099 70.204 65.8483 70.204 64.4286V20.2658C70.204 19.9109 70.0664 19.5705 69.8216 19.3195C69.5768 19.0685 69.2448 18.9275 68.8985 18.9275H59.7607Z" fill="white"/>
<path fill-rule="evenodd" clip-rule="evenodd" d="M33.9666 16.2616C33.9666 14.7775 35.0915 13.5745 36.4792 13.5745H46.5299C47.9176 13.5745 49.0425 14.7775 49.0425 16.2616C49.0425 17.7457 47.9176 18.9488 46.5299 18.9488H36.4792C35.0915 18.9488 33.9666 17.7457 33.9666 16.2616ZM33.9666 27.0102C33.9666 25.5262 35.0915 24.3231 36.4792 24.3231H46.5299C47.9176 24.3231 49.0425 25.5262 49.0425 27.0102C49.0425 28.4943 47.9176 29.6974 46.5299 29.6974H36.4792C35.0915 29.6974 33.9666 28.4943 33.9666 27.0102ZM13.8652 37.7589C13.8652 36.2748 14.9902 35.0717 16.3779 35.0717H46.5299C47.9176 35.0717 49.0425 36.2748 49.0425 37.7589C49.0425 39.2429 47.9176 40.446 46.5299 40.446H16.3779C14.9902 40.446 13.8652 39.2429 13.8652 37.7589ZM13.8652 48.5075C13.8652 47.0234 14.9902 45.8203 16.3779 45.8203H46.5299C47.9176 45.8203 49.0425 47.0234 49.0425 48.5075C49.0425 49.9916 47.9176 51.1946 46.5299 51.1946H16.3779C14.9902 51.1946 13.8652 49.9916 13.8652 48.5075ZM13.8652 59.2561C13.8652 57.772 14.9902 56.5689 16.3779 56.5689H46.5299C47.9176 56.5689 49.0425 57.772 49.0425 59.2561C49.0425 60.7402 47.9176 61.9433 46.5299 61.9433H16.3779C14.9902 61.9433 13.8652 60.7402 13.8652 59.2561Z" fill="white"/>
<path d="M26.6903 28.9645H16.4302C15.75 28.9645 15.0975 28.6943 14.6165 28.2133C14.1355 27.7322 13.8652 27.0798 13.8652 26.3995V16.1395C13.8652 15.4592 14.1355 14.8068 14.6165 14.3257C15.0975 13.8447 15.75 13.5745 16.4302 13.5745H26.6903C27.3706 13.5745 28.023 13.8447 28.504 14.3257C28.9851 14.8068 29.2553 15.4592 29.2553 16.1395V26.3995C29.2553 27.0798 28.9851 27.7322 28.504 28.2133C28.023 28.6943 27.3706 28.9645 26.6903 28.9645Z" fill="white"/>
</svg>
