<svg width="26" height="29" viewBox="0 0 26 29" fill="none" xmlns="http://www.w3.org/2000/svg">
<path d="M20.4433 9.99448C20.4433 7.8742 19.6651 5.84078 18.2798 4.34153C16.8946 2.84227 15.0159 2 13.0569 2C11.0979 2 9.2192 2.84227 7.834 4.34153C6.44879 5.84078 5.67059 7.8742 5.67059 9.99448C5.67059 19.3214 1.97742 21.9862 1.97742 21.9862H24.1364C24.1364 21.9862 20.4433 19.3214 20.4433 9.99448Z" stroke="#EFEFEF" stroke-width="3.4799" stroke-linecap="round" stroke-linejoin="round"/>
<path d="M15.1867 25.7552C14.9703 26.1339 14.6597 26.4481 14.2858 26.6665C13.9121 26.885 13.4883 27 13.057 27C12.6256 27 12.2019 26.885 11.8281 26.6665C11.4544 26.4481 11.1437 26.1339 10.9272 25.7552" stroke="#EFEFEF" stroke-width="3.4799" stroke-linecap="round" stroke-linejoin="round"/>
</svg>
