<svg width="35" height="35" viewBox="0 0 35 35" fill="none" xmlns="http://www.w3.org/2000/svg">
<path d="M17.5 20.4166C19.1108 20.4166 20.4167 19.1107 20.4167 17.4999C20.4167 15.8891 19.1108 14.5833 17.5 14.5833C15.8892 14.5833 14.5833 15.8891 14.5833 17.4999C14.5833 19.1107 15.8892 20.4166 17.5 20.4166Z" stroke="white" stroke-width="2" stroke-linecap="round" stroke-linejoin="round"/>
<path d="M23.6833 11.3168C24.4969 12.1294 25.1423 13.0944 25.5826 14.1567C26.0229 15.2189 26.2496 16.3575 26.2496 17.5074C26.2496 18.6573 26.0229 19.7959 25.5826 20.8581C25.1423 21.9204 24.4969 22.8854 23.6833 23.698M11.3167 23.6834C10.5031 22.8708 9.85772 21.9058 9.41738 20.8436C8.97705 19.7813 8.7504 18.6427 8.7504 17.4928C8.7504 16.3429 8.97705 15.2043 9.41738 14.1421C9.85772 13.0799 10.5031 12.1148 11.3167 11.3022M27.8104 7.1897C30.5444 9.92448 32.0802 13.6331 32.0802 17.5001C32.0802 21.3671 30.5444 25.0758 27.8104 27.8105M7.18957 27.8105C4.45562 25.0758 2.91977 21.3671 2.91977 17.5001C2.91977 13.6331 4.45562 9.92448 7.18957 7.1897" stroke="white" stroke-width="2" stroke-linecap="round" stroke-linejoin="round"/>
</svg>
